<svg width="41" height="40" viewBox="0 0 41 40" fill="none" xmlns="http://www.w3.org/2000/svg">
<path d="M3.97088 40H22.1527C24.161 40 25.7891 38.3719 25.7891 36.3636L25.7891 3.63636C25.7891 1.62806 24.161 0 22.1527 0H3.97088C1.96257 0 0.334518 1.62806 0.334518 3.63636L0.334518 36.3636C0.334518 38.3719 1.96257 40 3.97088 40Z" fill="#DCC7F5"/>
<path d="M3.06143 3.63635H3.06143C2.55936 3.63635 2.15234 4.04337 2.15234 4.54544V35.4545C2.15234 35.9566 2.55936 36.3636 3.06143 36.3636C3.56351 36.3636 3.97053 35.9566 3.97053 35.4545V4.54544C3.97053 4.04337 3.56351 3.63635 3.06143 3.63635Z" fill="#CAAAEF"/>
<path d="M5.78906 38.1818H23.9709C24.975 38.1818 25.7891 37.3678 25.7891 36.3636L25.7891 3.63637C25.7891 2.63222 24.975 1.81818 23.9709 1.81818H5.78906C4.78491 1.81818 3.97088 2.63222 3.97088 3.63637L3.97088 36.3636C3.97088 37.3678 4.78491 38.1818 5.78906 38.1818Z" fill="#385BC2"/>
<path d="M23.9709 5.45453H7.60724C6.60309 5.45453 5.78906 6.26856 5.78906 7.27271V34.5454C5.78906 35.5496 6.60309 36.3636 7.60724 36.3636H23.9709C24.975 36.3636 25.7891 35.5496 25.7891 34.5454V7.27271C25.7891 6.26856 24.975 5.45453 23.9709 5.45453Z" fill="#D7E816"/>
<path d="M22.1529 7.27271H9.4256C8.42145 7.27271 7.60742 8.08673 7.60742 9.09088V9.09089C7.60742 10.095 8.42145 10.9091 9.4256 10.9091H22.1529C23.157 10.9091 23.9711 10.095 23.9711 9.09088C23.9711 8.08673 23.157 7.27271 22.1529 7.27271Z" fill="#E8F27A"/>
<path d="M23.97 9.09088H18.5154C17.5113 9.09088 16.6973 9.90491 16.6973 10.9091V23.6363C16.6973 24.6405 17.5113 25.4545 18.5154 25.4545H23.97C24.9741 25.4545 25.7882 24.6405 25.7882 23.6363V10.9091C25.7882 9.90491 24.9741 9.09088 23.97 9.09088Z" fill="#B8D100"/>
<path d="M21.2424 1.81818H13.9696C13.4676 1.81818 13.0605 2.22519 13.0605 2.72727V2.72727C13.0605 3.22934 13.4676 3.63636 13.9696 3.63636H21.2424C21.7444 3.63636 22.1515 3.22934 22.1515 2.72727C22.1515 2.22519 21.7444 1.81818 21.2424 1.81818Z" fill="#0430B2"/>
<path d="M10.3349 3.63636C10.8369 3.63636 11.244 3.22934 11.244 2.72727C11.244 2.22519 10.8369 1.81818 10.3349 1.81818C9.8328 1.81818 9.42578 2.22519 9.42578 2.72727C9.42578 3.22934 9.8328 3.63636 10.3349 3.63636Z" fill="#0430B2"/>
<path d="M20.3349 30.9091H11.244C10.2398 30.9091 9.42578 31.7231 9.42578 32.7273V32.7273C9.42578 33.7315 10.2398 34.5455 11.244 34.5455H20.3349C21.339 34.5455 22.1531 33.7315 22.1531 32.7273C22.1531 31.7231 21.339 30.9091 20.3349 30.9091Z" fill="#559AFF"/>
<path d="M12.1529 23.6364H8.51651C8.01444 23.6364 7.60742 24.0434 7.60742 24.5454C7.60742 25.0475 8.01444 25.4545 8.51651 25.4545H12.1529C12.655 25.4545 13.062 25.0475 13.062 24.5454C13.062 24.0434 12.655 23.6364 12.1529 23.6364Z" fill="#559AFF"/>
<path d="M23.0613 23.6364H21.2431C20.741 23.6364 20.334 24.0434 20.334 24.5454C20.334 25.0475 20.741 25.4545 21.2431 25.4545H23.0613C23.5633 25.4545 23.9703 25.0475 23.9703 24.5454C23.9703 24.0434 23.5633 23.6364 23.0613 23.6364Z" fill="#1F7AFF"/>
<path d="M17.6062 23.6364H15.788C15.2859 23.6364 14.8789 24.0434 14.8789 24.5454C14.8789 25.0475 15.2859 25.4545 15.788 25.4545H17.6062C18.1083 25.4545 18.5153 25.0475 18.5153 24.5454C18.5153 24.0434 18.1083 23.6364 17.6062 23.6364Z" fill="#1F7AFF"/>
<path d="M15.7876 27.2727H12.1513C11.6492 27.2727 11.2422 27.6797 11.2422 28.1818C11.2422 28.6839 11.6492 29.0909 12.1513 29.0909H15.7876C16.2897 29.0909 16.6967 28.6839 16.6967 28.1818C16.6967 27.6797 16.2897 27.2727 15.7876 27.2727Z" fill="#559AFF"/>
<path d="M19.4247 27.2727H19.4247C18.9226 27.2727 18.5156 27.6797 18.5156 28.1818C18.5156 28.6839 18.9226 29.0909 19.4247 29.0909H19.4247C19.9268 29.0909 20.3338 28.6839 20.3338 28.1818C20.3338 27.6797 19.9268 27.2727 19.4247 27.2727Z" fill="#559AFF"/>
<path d="M20.3338 7.27271C19.8516 7.27271 19.3891 7.46426 19.0482 7.80524C18.7072 8.14621 18.5156 8.60867 18.5156 9.09089V21.8182C18.5156 22.3004 18.7072 22.7628 19.0482 23.1038C19.3891 23.4448 19.8516 23.6363 20.3338 23.6363H31.2429C31.7251 23.6363 32.1876 23.4448 32.5285 23.1038C32.8695 22.7628 33.0611 22.3004 33.0611 21.8182V7.27271H20.3338Z" fill="#EDDBFF"/>
<path d="M23.9703 21.8182H33.0613V9.09088H23.9703C23.9703 10.0553 23.5872 10.9802 22.9053 11.6622C22.2233 12.3441 21.2984 12.7272 20.334 12.7272V18.1818C20.8115 18.1818 21.2844 18.2758 21.7256 18.4586C22.1667 18.6413 22.5676 18.9092 22.9053 19.2469C23.2429 19.5845 23.5108 19.9854 23.6935 20.4266C23.8763 20.8678 23.9703 21.3406 23.9703 21.8182Z" fill="#00CD6C"/>
<path d="M30.3347 9.09088H30.3347C28.8285 9.09088 27.6074 10.3119 27.6074 11.8182V19.0909C27.6074 20.5971 28.8285 21.8182 30.3347 21.8182C31.8409 21.8182 33.062 20.5971 33.062 19.0909V11.8182C33.062 10.3119 31.8409 9.09088 30.3347 9.09088Z" fill="#00A865"/>
<path d="M38.5167 7.67961e-10H31.244C31.0052 -6.82683e-06 30.7688 0.0470172 30.5482 0.138387C30.3276 0.229757 30.1271 0.363683 29.9583 0.532518C29.7895 0.701353 29.6555 0.901791 29.5642 1.12239C29.4728 1.34298 29.4258 1.57941 29.4258 1.81818V18.1818C29.4258 17.9431 29.4728 17.7066 29.5642 17.486C29.6555 17.2654 29.7895 17.065 29.9583 16.8962C30.1271 16.7273 30.3276 16.5934 30.5482 16.502C30.7688 16.4107 31.0052 16.3636 31.244 16.3636H38.5167C38.9989 16.3636 39.4614 16.1721 39.8023 15.8311C40.1433 15.4901 40.3349 15.0277 40.3349 14.5455V1.81818C40.3349 1.57941 40.2879 1.34298 40.1965 1.12239C40.1051 0.901791 39.9712 0.701353 39.8024 0.532518C39.6335 0.363683 39.4331 0.229756 39.2125 0.138387C38.9919 0.0470169 38.7555 -6.93876e-06 38.5167 7.67961e-10Z" fill="#F6EDFF"/>
<path d="M31.2427 16.3636C30.7607 16.364 30.2986 16.5557 29.9579 16.8966C29.6172 17.2376 29.4258 17.6998 29.4258 18.1818C29.4258 18.6638 29.6172 19.1261 29.9579 19.467C30.2986 19.808 30.7607 19.9997 31.2427 20C31.4815 20 31.7179 20.047 31.9385 20.1384C32.1591 20.2298 32.3595 20.3637 32.5284 20.5325C32.6972 20.7014 32.8311 20.9018 32.9225 21.1224C33.0139 21.343 33.0609 21.5794 33.0609 21.8182V16.3636H31.2427Z" fill="#A3C1D8"/>
<path d="M29.4258 14.5454H34.8803C34.8803 14.0679 34.9744 13.5951 35.1571 13.1539C35.3399 12.7127 35.6077 12.3118 35.9454 11.9742C36.2831 11.6365 36.6839 11.3686 37.1251 11.1859C37.5663 11.0031 38.0392 10.9091 38.5167 10.9091V5.45454C38.0392 5.45454 37.5663 5.36048 37.1251 5.17774C36.6839 4.99499 36.2831 4.72714 35.9454 4.38947C35.6077 4.05181 35.3399 3.65094 35.1571 3.20975C34.9744 2.76857 34.8803 2.29571 34.8803 1.81818H29.4258V14.5454Z" fill="#19E77C"/>
<path d="M3.06126 7.27271H1.24308C0.740998 7.27271 0.333984 7.67972 0.333984 8.1818V13.6363C0.333984 14.1384 0.740998 14.5454 1.24308 14.5454H3.06126C3.56333 14.5454 3.97035 14.1384 3.97035 13.6363V8.1818C3.97035 7.67972 3.56333 7.27271 3.06126 7.27271Z" fill="#F6EDFF"/>
<path d="M1.24308 7.27271H1.24307C0.740998 7.27271 0.333984 7.67972 0.333984 8.1818V13.6363C0.333984 14.1384 0.740998 14.5454 1.24308 14.5454C1.74515 14.5454 2.15217 14.1384 2.15217 13.6363V8.1818C2.15217 7.67972 1.74515 7.27271 1.24308 7.27271Z" fill="#E9DCF8"/>
<path d="M3.06126 18.1818H1.24308C0.740998 18.1818 0.333984 18.5888 0.333984 19.0909V24.5455C0.333984 25.0475 0.740998 25.4545 1.24308 25.4545H3.06126C3.56333 25.4545 3.97035 25.0475 3.97035 24.5455V19.0909C3.97035 18.5888 3.56333 18.1818 3.06126 18.1818Z" fill="#F6EDFF"/>
<path d="M1.24308 18.1818H1.24307C0.740998 18.1818 0.333984 18.5888 0.333984 19.0909V24.5455C0.333984 25.0475 0.740998 25.4545 1.24308 25.4545C1.74515 25.4545 2.15217 25.0475 2.15217 24.5455V19.0909C2.15217 18.5888 1.74515 18.1818 1.24308 18.1818Z" fill="#E9DCF8"/>
<path d="M21.2436 38.1818H6.69815C6.19608 38.1818 5.78906 38.5888 5.78906 39.0909C5.78906 39.593 6.19608 40 6.69815 40H21.2436C21.7457 40 22.1527 39.593 22.1527 39.0909C22.1527 38.5888 21.7457 38.1818 21.2436 38.1818Z" fill="#CAAAEF"/>
</svg>
