<svg width="160" height="40" viewBox="0 0 160 40" fill="none" xmlns="http://www.w3.org/2000/svg">
<path d="M3.97088 40H22.1527C24.161 40 25.7891 38.3719 25.7891 36.3636L25.7891 3.63636C25.7891 1.62806 24.161 0 22.1527 0H3.97088C1.96257 0 0.334518 1.62806 0.334518 3.63636L0.334518 36.3636C0.334518 38.3719 1.96257 40 3.97088 40Z" fill="#DCC7F5"/>
<path d="M3.06143 3.63635H3.06143C2.55936 3.63635 2.15234 4.04337 2.15234 4.54544V35.4545C2.15234 35.9566 2.55936 36.3636 3.06143 36.3636C3.56351 36.3636 3.97053 35.9566 3.97053 35.4545V4.54544C3.97053 4.04337 3.56351 3.63635 3.06143 3.63635Z" fill="#CAAAEF"/>
<path d="M5.78906 38.1818H23.9709C24.975 38.1818 25.7891 37.3678 25.7891 36.3636L25.7891 3.63637C25.7891 2.63222 24.975 1.81818 23.9709 1.81818H5.78906C4.78491 1.81818 3.97088 2.63222 3.97088 3.63637L3.97088 36.3636C3.97088 37.3678 4.78491 38.1818 5.78906 38.1818Z" fill="#385BC2"/>
<path d="M23.9709 5.45453H7.60724C6.60309 5.45453 5.78906 6.26856 5.78906 7.27271V34.5454C5.78906 35.5496 6.60309 36.3636 7.60724 36.3636H23.9709C24.975 36.3636 25.7891 35.5496 25.7891 34.5454V7.27271C25.7891 6.26856 24.975 5.45453 23.9709 5.45453Z" fill="#D7E816"/>
<path d="M22.1529 7.27271H9.4256C8.42145 7.27271 7.60742 8.08673 7.60742 9.09088V9.09089C7.60742 10.095 8.42145 10.9091 9.4256 10.9091H22.1529C23.157 10.9091 23.9711 10.095 23.9711 9.09088C23.9711 8.08673 23.157 7.27271 22.1529 7.27271Z" fill="#E8F27A"/>
<path d="M23.97 9.09088H18.5154C17.5113 9.09088 16.6973 9.90491 16.6973 10.9091V23.6363C16.6973 24.6405 17.5113 25.4545 18.5154 25.4545H23.97C24.9741 25.4545 25.7882 24.6405 25.7882 23.6363V10.9091C25.7882 9.90491 24.9741 9.09088 23.97 9.09088Z" fill="#B8D100"/>
<path d="M21.2424 1.81818H13.9696C13.4676 1.81818 13.0605 2.22519 13.0605 2.72727V2.72727C13.0605 3.22934 13.4676 3.63636 13.9696 3.63636H21.2424C21.7444 3.63636 22.1515 3.22934 22.1515 2.72727C22.1515 2.22519 21.7444 1.81818 21.2424 1.81818Z" fill="#0430B2"/>
<path d="M10.3349 3.63636C10.8369 3.63636 11.244 3.22934 11.244 2.72727C11.244 2.22519 10.8369 1.81818 10.3349 1.81818C9.8328 1.81818 9.42578 2.22519 9.42578 2.72727C9.42578 3.22934 9.8328 3.63636 10.3349 3.63636Z" fill="#0430B2"/>
<path d="M20.3349 30.9091H11.244C10.2398 30.9091 9.42578 31.7231 9.42578 32.7273V32.7273C9.42578 33.7315 10.2398 34.5455 11.244 34.5455H20.3349C21.339 34.5455 22.1531 33.7315 22.1531 32.7273C22.1531 31.7231 21.339 30.9091 20.3349 30.9091Z" fill="#559AFF"/>
<path d="M12.1529 23.6364H8.51651C8.01444 23.6364 7.60742 24.0434 7.60742 24.5454C7.60742 25.0475 8.01444 25.4545 8.51651 25.4545H12.1529C12.655 25.4545 13.062 25.0475 13.062 24.5454C13.062 24.0434 12.655 23.6364 12.1529 23.6364Z" fill="#559AFF"/>
<path d="M23.0613 23.6364H21.2431C20.741 23.6364 20.334 24.0434 20.334 24.5454C20.334 25.0475 20.741 25.4545 21.2431 25.4545H23.0613C23.5633 25.4545 23.9703 25.0475 23.9703 24.5454C23.9703 24.0434 23.5633 23.6364 23.0613 23.6364Z" fill="#1F7AFF"/>
<path d="M17.6062 23.6364H15.788C15.2859 23.6364 14.8789 24.0434 14.8789 24.5454C14.8789 25.0475 15.2859 25.4545 15.788 25.4545H17.6062C18.1083 25.4545 18.5153 25.0475 18.5153 24.5454C18.5153 24.0434 18.1083 23.6364 17.6062 23.6364Z" fill="#1F7AFF"/>
<path d="M15.7876 27.2727H12.1513C11.6492 27.2727 11.2422 27.6797 11.2422 28.1818C11.2422 28.6839 11.6492 29.0909 12.1513 29.0909H15.7876C16.2897 29.0909 16.6967 28.6839 16.6967 28.1818C16.6967 27.6797 16.2897 27.2727 15.7876 27.2727Z" fill="#559AFF"/>
<path d="M19.4247 27.2727H19.4247C18.9226 27.2727 18.5156 27.6797 18.5156 28.1818C18.5156 28.6839 18.9226 29.0909 19.4247 29.0909H19.4247C19.9268 29.0909 20.3338 28.6839 20.3338 28.1818C20.3338 27.6797 19.9268 27.2727 19.4247 27.2727Z" fill="#559AFF"/>
<path d="M20.3338 7.27271C19.8516 7.27271 19.3891 7.46426 19.0482 7.80524C18.7072 8.14621 18.5156 8.60867 18.5156 9.09089V21.8182C18.5156 22.3004 18.7072 22.7628 19.0482 23.1038C19.3891 23.4448 19.8516 23.6363 20.3338 23.6363H31.2429C31.7251 23.6363 32.1876 23.4448 32.5285 23.1038C32.8695 22.7628 33.0611 22.3004 33.0611 21.8182V7.27271H20.3338Z" fill="#EDDBFF"/>
<path d="M23.9703 21.8182H33.0613V9.09088H23.9703C23.9703 10.0553 23.5872 10.9802 22.9053 11.6622C22.2233 12.3441 21.2984 12.7272 20.334 12.7272V18.1818C20.8115 18.1818 21.2844 18.2758 21.7256 18.4586C22.1667 18.6413 22.5676 18.9092 22.9053 19.2469C23.2429 19.5845 23.5108 19.9854 23.6935 20.4266C23.8763 20.8678 23.9703 21.3406 23.9703 21.8182Z" fill="#00CD6C"/>
<path d="M30.3347 9.09088H30.3347C28.8285 9.09088 27.6074 10.3119 27.6074 11.8182V19.0909C27.6074 20.5971 28.8285 21.8182 30.3347 21.8182C31.8409 21.8182 33.062 20.5971 33.062 19.0909V11.8182C33.062 10.3119 31.8409 9.09088 30.3347 9.09088Z" fill="#00A865"/>
<path d="M38.5167 7.67961e-10H31.244C31.0052 -6.82683e-06 30.7688 0.0470172 30.5482 0.138387C30.3276 0.229757 30.1271 0.363683 29.9583 0.532518C29.7895 0.701353 29.6555 0.901791 29.5642 1.12239C29.4728 1.34298 29.4258 1.57941 29.4258 1.81818V18.1818C29.4258 17.9431 29.4728 17.7066 29.5642 17.486C29.6555 17.2654 29.7895 17.065 29.9583 16.8962C30.1271 16.7273 30.3276 16.5934 30.5482 16.502C30.7688 16.4107 31.0052 16.3636 31.244 16.3636H38.5167C38.9989 16.3636 39.4614 16.1721 39.8023 15.8311C40.1433 15.4901 40.3349 15.0277 40.3349 14.5455V1.81818C40.3349 1.57941 40.2879 1.34298 40.1965 1.12239C40.1051 0.901791 39.9712 0.701353 39.8024 0.532518C39.6335 0.363683 39.4331 0.229756 39.2125 0.138387C38.9919 0.0470169 38.7555 -6.93876e-06 38.5167 7.67961e-10Z" fill="#F6EDFF"/>
<path d="M31.2427 16.3636C30.7607 16.364 30.2986 16.5557 29.9579 16.8966C29.6172 17.2376 29.4258 17.6998 29.4258 18.1818C29.4258 18.6638 29.6172 19.1261 29.9579 19.467C30.2986 19.808 30.7607 19.9997 31.2427 20C31.4815 20 31.7179 20.047 31.9385 20.1384C32.1591 20.2298 32.3595 20.3637 32.5284 20.5325C32.6972 20.7014 32.8311 20.9018 32.9225 21.1224C33.0139 21.343 33.0609 21.5794 33.0609 21.8182V16.3636H31.2427Z" fill="#A3C1D8"/>
<path d="M29.4258 14.5454H34.8803C34.8803 14.0679 34.9744 13.5951 35.1571 13.1539C35.3399 12.7127 35.6077 12.3118 35.9454 11.9742C36.2831 11.6365 36.6839 11.3686 37.1251 11.1859C37.5663 11.0031 38.0392 10.9091 38.5167 10.9091V5.45454C38.0392 5.45454 37.5663 5.36048 37.1251 5.17774C36.6839 4.99499 36.2831 4.72714 35.9454 4.38947C35.6077 4.05181 35.3399 3.65094 35.1571 3.20975C34.9744 2.76857 34.8803 2.29571 34.8803 1.81818H29.4258V14.5454Z" fill="#19E77C"/>
<path d="M3.06126 7.27271H1.24308C0.740998 7.27271 0.333984 7.67972 0.333984 8.1818V13.6363C0.333984 14.1384 0.740998 14.5454 1.24308 14.5454H3.06126C3.56333 14.5454 3.97035 14.1384 3.97035 13.6363V8.1818C3.97035 7.67972 3.56333 7.27271 3.06126 7.27271Z" fill="#F6EDFF"/>
<path d="M1.24308 7.27271H1.24307C0.740998 7.27271 0.333984 7.67972 0.333984 8.1818V13.6363C0.333984 14.1384 0.740998 14.5454 1.24308 14.5454C1.74515 14.5454 2.15217 14.1384 2.15217 13.6363V8.1818C2.15217 7.67972 1.74515 7.27271 1.24308 7.27271Z" fill="#E9DCF8"/>
<path d="M3.06126 18.1818H1.24308C0.740998 18.1818 0.333984 18.5888 0.333984 19.0909V24.5455C0.333984 25.0475 0.740998 25.4545 1.24308 25.4545H3.06126C3.56333 25.4545 3.97035 25.0475 3.97035 24.5455V19.0909C3.97035 18.5888 3.56333 18.1818 3.06126 18.1818Z" fill="#F6EDFF"/>
<path d="M1.24308 18.1818H1.24307C0.740998 18.1818 0.333984 18.5888 0.333984 19.0909V24.5455C0.333984 25.0475 0.740998 25.4545 1.24308 25.4545C1.74515 25.4545 2.15217 25.0475 2.15217 24.5455V19.0909C2.15217 18.5888 1.74515 18.1818 1.24308 18.1818Z" fill="#E9DCF8"/>
<path d="M21.2436 38.1818H6.69815C6.19608 38.1818 5.78906 38.5888 5.78906 39.0909C5.78906 39.593 6.19608 40 6.69815 40H21.2436C21.7457 40 22.1527 39.593 22.1527 39.0909C22.1527 38.5888 21.7457 38.1818 21.2436 38.1818Z" fill="#CAAAEF"/>
<path d="M47.0114 14.3636H50.0455L53.25 22.1818H53.3864L56.5909 14.3636H59.625V26H57.2386V18.4261H57.142L54.1307 25.9432H52.5057L49.4943 18.3977H49.3977V26H47.0114V14.3636ZM65.5497 26.1705C64.6671 26.1705 63.9039 25.983 63.2599 25.608C62.6198 25.2292 62.1255 24.7027 61.777 24.0284C61.4285 23.3504 61.2543 22.5644 61.2543 21.6705C61.2543 20.7689 61.4285 19.9811 61.777 19.3068C62.1255 18.6288 62.6198 18.1023 63.2599 17.7273C63.9039 17.3485 64.6671 17.1591 65.5497 17.1591C66.4323 17.1591 67.1937 17.3485 67.8338 17.7273C68.4777 18.1023 68.974 18.6288 69.3224 19.3068C69.6709 19.9811 69.8452 20.7689 69.8452 21.6705C69.8452 22.5644 69.6709 23.3504 69.3224 24.0284C68.974 24.7027 68.4777 25.2292 67.8338 25.608C67.1937 25.983 66.4323 26.1705 65.5497 26.1705ZM65.5611 24.2955C65.9626 24.2955 66.2978 24.1818 66.5668 23.9545C66.8357 23.7235 67.0384 23.4091 67.1747 23.0114C67.3149 22.6136 67.3849 22.161 67.3849 21.6534C67.3849 21.1458 67.3149 20.6932 67.1747 20.2955C67.0384 19.8977 66.8357 19.5833 66.5668 19.3523C66.2978 19.1212 65.9626 19.0057 65.5611 19.0057C65.1558 19.0057 64.8149 19.1212 64.5384 19.3523C64.2656 19.5833 64.0592 19.8977 63.919 20.2955C63.7827 20.6932 63.7145 21.1458 63.7145 21.6534C63.7145 22.161 63.7827 22.6136 63.919 23.0114C64.0592 23.4091 64.2656 23.7235 64.5384 23.9545C64.8149 24.1818 65.1558 24.2955 65.5611 24.2955ZM71.4645 26V14.3636H73.8849V18.7386H73.9588C74.0649 18.5038 74.2183 18.2652 74.419 18.0227C74.6236 17.7765 74.8887 17.572 75.2145 17.4091C75.544 17.2424 75.9531 17.1591 76.4418 17.1591C77.0781 17.1591 77.6652 17.3258 78.2031 17.6591C78.741 17.9886 79.1709 18.4867 79.4929 19.1534C79.8149 19.8163 79.9759 20.6477 79.9759 21.6477C79.9759 22.6212 79.8187 23.4432 79.5043 24.1136C79.1937 24.7803 78.7694 25.286 78.2315 25.6307C77.6974 25.9716 77.099 26.142 76.4361 26.142C75.9664 26.142 75.5668 26.0644 75.2372 25.9091C74.9115 25.7538 74.6444 25.5587 74.4361 25.3239C74.2277 25.0852 74.0687 24.8447 73.9588 24.6023H73.8509V26H71.4645ZM73.8338 21.6364C73.8338 22.1553 73.9058 22.608 74.0497 22.9943C74.1937 23.3807 74.402 23.6818 74.6747 23.8977C74.9474 24.1098 75.2789 24.2159 75.669 24.2159C76.063 24.2159 76.3963 24.108 76.669 23.892C76.9418 23.6723 77.1482 23.3693 77.2884 22.983C77.4323 22.5928 77.5043 22.1439 77.5043 21.6364C77.5043 21.1326 77.4342 20.6894 77.294 20.3068C77.1539 19.9242 76.9474 19.625 76.6747 19.4091C76.402 19.1932 76.0668 19.0852 75.669 19.0852C75.2751 19.0852 74.9418 19.1894 74.669 19.3977C74.4001 19.6061 74.1937 19.9015 74.0497 20.2841C73.9058 20.6667 73.8338 21.1174 73.8338 21.6364ZM81.5909 26V17.2727H84.0114V26H81.5909ZM82.8068 16.1477C82.447 16.1477 82.1383 16.0284 81.8807 15.7898C81.6269 15.5473 81.5 15.2576 81.5 14.9205C81.5 14.5871 81.6269 14.3011 81.8807 14.0625C82.1383 13.8201 82.447 13.6989 82.8068 13.6989C83.1667 13.6989 83.4735 13.8201 83.7273 14.0625C83.9848 14.3011 84.1136 14.5871 84.1136 14.9205C84.1136 15.2576 83.9848 15.5473 83.7273 15.7898C83.4735 16.0284 83.1667 16.1477 82.8068 16.1477ZM88.3707 14.3636V26H85.9503V14.3636H88.3707ZM94.2869 26.1705C93.3892 26.1705 92.6165 25.9886 91.9688 25.625C91.3248 25.2576 90.8286 24.7386 90.4801 24.0682C90.1316 23.3939 89.9574 22.5966 89.9574 21.6761C89.9574 20.7784 90.1316 19.9905 90.4801 19.3125C90.8286 18.6345 91.3191 18.1061 91.9517 17.7273C92.5881 17.3485 93.3343 17.1591 94.1903 17.1591C94.7661 17.1591 95.3021 17.2519 95.7983 17.4375C96.2983 17.6193 96.7339 17.8939 97.1051 18.2614C97.4801 18.6288 97.7718 19.0909 97.9801 19.6477C98.1884 20.2008 98.2926 20.8485 98.2926 21.5909V22.2557H90.9233V20.7557H96.0142C96.0142 20.4072 95.9384 20.0985 95.7869 19.8295C95.6354 19.5606 95.4252 19.3504 95.1562 19.1989C94.8911 19.0436 94.5824 18.9659 94.2301 18.9659C93.8627 18.9659 93.5369 19.0511 93.2528 19.2216C92.9725 19.3883 92.7528 19.6136 92.5938 19.8977C92.4347 20.178 92.3532 20.4905 92.3494 20.8352V22.2614C92.3494 22.6932 92.429 23.0663 92.5881 23.3807C92.7509 23.6951 92.9801 23.9375 93.2756 24.108C93.571 24.2784 93.9214 24.3636 94.3267 24.3636C94.5956 24.3636 94.8419 24.3258 95.0653 24.25C95.2888 24.1742 95.4801 24.0606 95.6392 23.9091C95.7983 23.7576 95.9195 23.572 96.0028 23.3523L98.2415 23.5C98.1278 24.0379 97.8949 24.5076 97.5426 24.9091C97.1941 25.3068 96.7434 25.6174 96.1903 25.8409C95.6411 26.0606 95.0066 26.1705 94.2869 26.1705Z" fill="#385BC2"/>
<path d="M106.23 17.7102C106.185 17.2519 105.99 16.8958 105.645 16.642C105.3 16.3883 104.832 16.2614 104.241 16.2614C103.84 16.2614 103.501 16.3182 103.224 16.4318C102.948 16.5417 102.736 16.6951 102.588 16.892C102.444 17.089 102.372 17.3125 102.372 17.5625C102.365 17.7708 102.408 17.9527 102.503 18.108C102.601 18.2633 102.736 18.3977 102.906 18.5114C103.077 18.6212 103.274 18.7178 103.497 18.8011C103.721 18.8807 103.959 18.9489 104.213 19.0057L105.259 19.2557C105.766 19.3693 106.232 19.5208 106.656 19.7102C107.08 19.8996 107.448 20.1326 107.759 20.4091C108.069 20.6856 108.31 21.0114 108.48 21.3864C108.654 21.7614 108.743 22.1913 108.747 22.6761C108.743 23.3883 108.562 24.0057 108.202 24.5284C107.846 25.0473 107.33 25.4508 106.656 25.7386C105.986 26.0227 105.177 26.1648 104.23 26.1648C103.291 26.1648 102.473 26.0208 101.776 25.733C101.082 25.4451 100.541 25.0189 100.151 24.4545C99.7642 23.8864 99.5616 23.1837 99.5426 22.3466H101.923C101.95 22.7367 102.062 23.0625 102.259 23.3239C102.459 23.5814 102.726 23.7765 103.06 23.9091C103.397 24.0379 103.777 24.1023 104.202 24.1023C104.618 24.1023 104.98 24.0417 105.287 23.9205C105.598 23.7992 105.838 23.6307 106.009 23.4148C106.179 23.1989 106.264 22.9508 106.264 22.6705C106.264 22.4091 106.187 22.1894 106.031 22.0114C105.88 21.8333 105.656 21.6818 105.361 21.5568C105.069 21.4318 104.711 21.3182 104.287 21.2159L103.02 20.8977C102.039 20.6591 101.264 20.286 100.696 19.7784C100.128 19.2708 99.8456 18.5871 99.8494 17.7273C99.8456 17.0227 100.033 16.4072 100.412 15.8807C100.795 15.3542 101.319 14.9432 101.986 14.6477C102.652 14.3523 103.41 14.2045 104.259 14.2045C105.122 14.2045 105.876 14.3523 106.52 14.6477C107.168 14.9432 107.671 15.3542 108.031 15.8807C108.391 16.4072 108.577 17.017 108.588 17.7102H106.23ZM114.334 26.1705C113.436 26.1705 112.663 25.9886 112.016 25.625C111.372 25.2576 110.875 24.7386 110.527 24.0682C110.179 23.3939 110.004 22.5966 110.004 21.6761C110.004 20.7784 110.179 19.9905 110.527 19.3125C110.875 18.6345 111.366 18.1061 111.999 17.7273C112.635 17.3485 113.381 17.1591 114.237 17.1591C114.813 17.1591 115.349 17.2519 115.845 17.4375C116.345 17.6193 116.781 17.8939 117.152 18.2614C117.527 18.6288 117.819 19.0909 118.027 19.6477C118.235 20.2008 118.339 20.8485 118.339 21.5909V22.2557H110.97V20.7557H116.061C116.061 20.4072 115.985 20.0985 115.834 19.8295C115.682 19.5606 115.472 19.3504 115.203 19.1989C114.938 19.0436 114.629 18.9659 114.277 18.9659C113.91 18.9659 113.584 19.0511 113.3 19.2216C113.019 19.3883 112.8 19.6136 112.641 19.8977C112.482 20.178 112.4 20.4905 112.396 20.8352V22.2614C112.396 22.6932 112.476 23.0663 112.635 23.3807C112.798 23.6951 113.027 23.9375 113.322 24.108C113.618 24.2784 113.968 24.3636 114.374 24.3636C114.643 24.3636 114.889 24.3258 115.112 24.25C115.336 24.1742 115.527 24.0606 115.686 23.9091C115.845 23.7576 115.966 23.572 116.05 23.3523L118.288 23.5C118.175 24.0379 117.942 24.5076 117.589 24.9091C117.241 25.3068 116.79 25.6174 116.237 25.8409C115.688 26.0606 115.054 26.1705 114.334 26.1705ZM122.339 14.3636V26H119.919V14.3636H122.339ZM126.699 14.3636V26H124.278V14.3636H126.699ZM128.683 26V14.3636H131.143V19.1648H136.138V14.3636H138.592V26H136.138V21.1932H131.143V26H128.683ZM146.172 22.2841V17.2727H148.592V26H146.268V24.4148H146.178C145.981 24.9261 145.653 25.3371 145.195 25.6477C144.74 25.9583 144.185 26.1136 143.53 26.1136C142.946 26.1136 142.433 25.9811 141.99 25.7159C141.547 25.4508 141.2 25.0739 140.95 24.5852C140.704 24.0966 140.579 23.5114 140.575 22.8295V17.2727H142.996V22.3977C143 22.9129 143.138 23.3201 143.411 23.6193C143.683 23.9186 144.049 24.0682 144.507 24.0682C144.799 24.0682 145.071 24.0019 145.325 23.8693C145.579 23.733 145.784 23.5322 145.939 23.267C146.098 23.0019 146.176 22.6742 146.172 22.2841ZM150.574 26V14.3636H152.994V18.7386H153.068C153.174 18.5038 153.328 18.2652 153.528 18.0227C153.733 17.7765 153.998 17.572 154.324 17.4091C154.653 17.2424 155.063 17.1591 155.551 17.1591C156.188 17.1591 156.775 17.3258 157.312 17.6591C157.85 17.9886 158.28 18.4867 158.602 19.1534C158.924 19.8163 159.085 20.6477 159.085 21.6477C159.085 22.6212 158.928 23.4432 158.614 24.1136C158.303 24.7803 157.879 25.286 157.341 25.6307C156.807 25.9716 156.208 26.142 155.545 26.142C155.076 26.142 154.676 26.0644 154.347 25.9091C154.021 25.7538 153.754 25.5587 153.545 25.3239C153.337 25.0852 153.178 24.8447 153.068 24.6023H152.96V26H150.574ZM152.943 21.6364C152.943 22.1553 153.015 22.608 153.159 22.9943C153.303 23.3807 153.511 23.6818 153.784 23.8977C154.057 24.1098 154.388 24.2159 154.778 24.2159C155.172 24.2159 155.506 24.108 155.778 23.892C156.051 23.6723 156.258 23.3693 156.398 22.983C156.542 22.5928 156.614 22.1439 156.614 21.6364C156.614 21.1326 156.544 20.6894 156.403 20.3068C156.263 19.9242 156.057 19.625 155.784 19.4091C155.511 19.1932 155.176 19.0852 154.778 19.0852C154.384 19.0852 154.051 19.1894 153.778 19.3977C153.509 19.6061 153.303 19.9015 153.159 20.2841C153.015 20.6667 152.943 21.1174 152.943 21.6364Z" fill="#19E77C"/>
</svg>
