<svg width="37" height="50" viewBox="0 0 37 50" fill="none" xmlns="http://www.w3.org/2000/svg">
<g clip-path="url(#clip0_99_1236)">
<path d="M31.2331 49.9999H6.15326C5.97033 49.8995 5.77204 49.9738 5.58143 49.9504C3.63952 49.9113 2.26048 48.875 1.17311 47.3446C0.373569 46.2196 0.00898048 44.9617 0.0102597 43.5591C0.0230523 31.1937 0.0396827 18.827 2.56712e-05 6.46157C-0.00764988 3.90011 1.70656 1.20178 4.23949 0.271049C4.8497 0.0468393 5.49188 0.0155543 6.12384 0.0142507C11.5927 0.00121528 17.0628 0.00642945 22.5316 0.00903654C22.671 0.00903654 22.8207 -0.0339804 22.9474 0.067696C23.1354 0.376636 23.106 0.723378 23.1073 1.0623C23.1086 5.22321 23.1073 9.38542 23.1086 13.5463C23.1086 14.1686 23.4211 14.4801 24.0462 14.481C27.8904 14.481 31.7346 14.481 35.5788 14.4797C35.9472 14.4797 36.3118 14.4927 36.6725 14.5709C36.8938 14.6674 36.9591 14.8616 36.9744 15.0832C36.9898 15.2944 36.9847 15.5056 36.9847 15.7167C36.9847 25.0318 36.9629 34.3483 37 43.6634C37.0103 46.1245 35.3434 48.7524 32.9627 49.7014C32.4036 49.9243 31.8062 49.8839 31.2318 50.0012L31.2331 49.9999Z" fill="#F90000"/>
<path d="M5.67514 49.9999C5.6649 49.9738 5.65851 49.9477 5.65723 49.919C5.83376 49.8786 6.00263 49.8851 6.15358 49.9999H5.67514Z" fill="#FB5C5C"/>
<path d="M26.4256 30.7923C26.4269 35.2283 22.8693 38.856 18.5134 38.8626C14.1626 38.8678 10.591 35.2452 10.5782 30.8132C10.5641 26.3694 14.1665 22.6947 18.5147 22.713C22.8667 22.7312 26.4243 26.3655 26.4256 30.7936V30.7923Z" fill="#FEFEFE"/>
<path d="M22.8984 0.0703125C23.2157 0.239773 23.4114 0.542195 23.6494 0.795082C27.9285 5.33663 32.2025 9.88208 36.4765 14.4288C36.5532 14.5097 36.6185 14.6009 36.6901 14.6869C32.2741 14.6869 27.8594 14.683 23.4434 14.6987C23.0251 14.7 22.9023 14.5866 22.9036 14.1538C22.9189 9.68655 22.9125 5.21931 22.9125 0.752065C22.9125 0.525249 22.9036 0.297129 22.8984 0.0703125Z" fill="#FB4D4D"/>
<path d="M16.8053 27.9232C16.9742 27.9167 17.1149 27.9975 17.2569 28.0705C18.6231 28.764 19.9881 29.4601 21.3543 30.1536C21.6166 30.2865 21.8737 30.4195 21.8814 30.7741C21.8891 31.1573 21.6076 31.2955 21.3352 31.435C19.9855 32.1258 18.6346 32.8167 17.2825 33.5037C16.6121 33.8439 16.2386 33.6132 16.2347 32.8545C16.2296 31.4571 16.2347 30.0597 16.2335 28.6623C16.2335 28.2608 16.3486 27.9558 16.804 27.9232H16.8053Z" fill="#F90000"/>
</g>
<defs>
<clipPath id="clip0_99_1236">
<rect width="37" height="50" fill="white"/>
</clipPath>
</defs>
</svg>
